<svg width="55" height="55" viewBox="0 0 55 55" fill="none" xmlns="http://www.w3.org/2000/svg">
<path d="M20.004 24.6353L34.8998 17.7603M20.004 30.3645L34.8998 37.2395M48.125 14.8958C48.125 16.7191 47.4007 18.4678 46.1114 19.7571C44.822 21.0464 43.0734 21.7708 41.25 21.7708C39.4266 21.7708 37.678 21.0464 36.3886 19.7571C35.0993 18.4678 34.375 16.7191 34.375 14.8958C34.375 13.0724 35.0993 11.3237 36.3886 10.0344C37.678 8.74508 39.4266 8.02075 41.25 8.02075C43.0734 8.02075 44.822 8.74508 46.1114 10.0344C47.4007 11.3237 48.125 13.0724 48.125 14.8958ZM20.625 27.4999C20.625 29.3233 19.9007 31.072 18.6114 32.3613C17.322 33.6506 15.5734 34.3749 13.75 34.3749C11.9266 34.3749 10.178 33.6506 8.88864 32.3613C7.59933 31.072 6.875 29.3233 6.875 27.4999C6.875 25.6766 7.59933 23.9279 8.88864 22.6386C10.178 21.3492 11.9266 20.6249 13.75 20.6249C15.5734 20.6249 17.322 21.3492 18.6114 22.6386C19.9007 23.9279 20.625 25.6766 20.625 27.4999ZM48.125 40.1041C48.125 41.9274 47.4007 43.6761 46.1114 44.9654C44.822 46.2548 43.0734 46.9791 41.25 46.9791C39.4266 46.9791 37.678 46.2548 36.3886 44.9654C35.0993 43.6761 34.375 41.9274 34.375 40.1041C34.375 38.2807 35.0993 36.532 36.3886 35.2427C37.678 33.9534 39.4266 33.2291 41.25 33.2291C43.0734 33.2291 44.822 33.9534 46.1114 35.2427C47.4007 36.532 48.125 38.2807 48.125 40.1041Z" stroke="#006B99" stroke-width="3.4375" stroke-linecap="round" stroke-linejoin="round"/>
</svg>
